<?xml version="1.0"?>
<!-- Generated by SVGo -->
<svg width="602" height="266"
     xmlns="http://www.w3.org/2000/svg"
     xmlns:xlink="http://www.w3.org/1999/xlink">
<defs>
<style>
@font-face {
  font-family: 'DejaVuSans';
  src: url('https://fontlibrary.org/assets/fonts/dejavu-sans/f5ec8426554a3a67ebcdd39f9c3fee83/49c0f03ec2fa354df7002bcb6331e106/DejaVuSansBook.ttf') format('truetype');
  font-weight: normal;
  font-style: normal;
}
</style>
</defs>
<line x1="67" y1="24" x2="67" y2="242" style="stroke-dasharray:8,8;stroke-width:2px;stroke:black;" />
<rect x="8" y="8" width="119" height="32" style="fill:white;stroke-width:2px;stroke:black;" />
<text x="24" y="29" style="fill:black;font-family:DejaVuSans,sans-serif;font-size:16px;" >Cat tracker</text>
<rect x="8" y="226" width="119" height="32" style="fill:white;stroke-width:2px;stroke:black;" />
<text x="24" y="247" style="fill:black;font-family:DejaVuSans,sans-serif;font-size:16px;" >Cat tracker</text>
<line x1="526" y1="24" x2="526" y2="242" style="stroke-dasharray:8,8;stroke-width:2px;stroke:black;" />
<rect x="458" y="8" width="136" height="32" style="fill:white;stroke-width:2px;stroke:black;" />
<text x="474" y="29" style="fill:black;font-family:DejaVuSans,sans-serif;font-size:16px;" >Cloud service</text>
<rect x="458" y="226" width="136" height="32" style="fill:white;stroke-width:2px;stroke:black;" />
<text x="474" y="247" style="fill:black;font-family:DejaVuSans,sans-serif;font-size:16px;" >Cloud service</text>
<rect x="142" y="56" width="308" height="14" style="fill:white;stroke:white;" />
<text x="142" y="68" style="font-family:DejaVuSans,sans-serif;font-size:14px;" >Publish Battery, accelerometer and GPS data</text>
<line x1="67" y1="74" x2="526" y2="74" style="stroke:black;stroke-width:2px;" />
<polyline points="517,69 526,74 517,79" style="fill:black;stroke-width:2px;stroke:black;" />
<rect x="191" y="90" width="212" height="14" style="fill:white;stroke:white;" />
<text x="191" y="102" style="font-family:DejaVuSans,sans-serif;font-size:14px;" >Send new configuration (if any)</text>
<line x1="526" y1="108" x2="67" y2="108" style="stroke:black;stroke-width:2px;" />
<polyline points="76,103 67,108 76,113" style="fill:black;stroke-width:2px;stroke:black;" />
<rect x="186" y="124" width="220" height="14" style="fill:white;stroke:white;" />
<text x="186" y="136" style="font-family:DejaVuSans,sans-serif;font-size:14px;" >Acknowledge new configuration</text>
<line x1="67" y1="142" x2="526" y2="142" style="stroke:black;stroke-width:2px;" />
<polyline points="517,137 526,142 517,147" style="fill:black;stroke-width:2px;stroke:black;" />
<rect x="83" y="158" width="427" height="14" style="fill:white;stroke:white;" />
<text x="83" y="170" style="font-family:DejaVuSans,sans-serif;font-size:14px;" >Publish modem data (device information, network information)</text>
<line x1="67" y1="176" x2="526" y2="176" style="stroke:black;stroke-width:2px;" />
<polyline points="517,171 526,176 517,181" style="fill:black;stroke-width:2px;stroke:black;" />
<rect x="206" y="192" width="180" height="14" style="fill:white;stroke:white;" />
<text x="206" y="204" style="font-family:DejaVuSans,sans-serif;font-size:14px;" >Publish buffered GPS data</text>
<line x1="67" y1="210" x2="526" y2="210" style="stroke:black;stroke-width:2px;" />
<polyline points="517,205 526,210 517,215" style="fill:black;stroke-width:2px;stroke:black;" />
</svg>
