<?xml version="1.0" encoding="UTF-8" standalone="no"?>
<svg
   xmlns:dc="http://purl.org/dc/elements/1.1/"
   xmlns:cc="http://creativecommons.org/ns#"
   xmlns:rdf="http://www.w3.org/1999/02/22-rdf-syntax-ns#"
   xmlns:svg="http://www.w3.org/2000/svg"
   xmlns="http://www.w3.org/2000/svg"
   xmlns:xlink="http://www.w3.org/1999/xlink"
   version="1.1"
   x="0px"
   y="0px"
   viewBox="0 0 513.71722 122.24568"
   enable-background="new 0 0 50 50"
   xml:space="preserve"
   id="svg1400"
   width="513.71722"
   height="122.24568"><metadata
   id="metadata1406"><rdf:RDF><cc:Work
       rdf:about=""><dc:format>image/svg+xml</dc:format><dc:type
         rdf:resource="http://purl.org/dc/dcmitype/StillImage" /><dc:title></dc:title></cc:Work></rdf:RDF></metadata><defs
   id="defs1404"><linearGradient
     id="linearGradient2031"><stop
       style="stop-color:#ffccaa;stop-opacity:1"
       offset="0"
       id="stop2027" /><stop
       style="stop-color:#aa4400;stop-opacity:1"
       offset="1"
       id="stop2029" /></linearGradient><linearGradient
     id="linearGradient1988"><stop
       style="stop-color:#7fd4e6;stop-opacity:1"
       offset="0"
       id="stop1984" /><stop
       id="stop2011"
       offset="0.6111635"
       style="stop-color:#7fd4e6;stop-opacity:1" /><stop
       style="stop-color:#00a9ce;stop-opacity:1"
       offset="0.61295801"
       id="stop2013" /><stop
       style="stop-color:#00a9ce;stop-opacity:1"
       offset="1"
       id="stop1986" /></linearGradient><linearGradient
     xlink:href="#linearGradient1988"
     id="linearGradient1990"
     x1="61.516045"
     y1="15.496874"
     x2="80.523285"
     y2="-16.80607"
     gradientUnits="userSpaceOnUse"
     gradientTransform="matrix(1.549808,0,0,1.549808,-42.895743,43.579247)" /><linearGradient
     xlink:href="#linearGradient2031"
     id="linearGradient2033"
     x1="41.010696"
     y1="37.313065"
     x2="49.156654"
     y2="37.313065"
     gradientUnits="userSpaceOnUse"
     gradientTransform="matrix(4.9970292,0,0,4.9970292,-160.63928,-108.27562)" /></defs><path
   id="rect2022"
   d="m 44.39276,59.329699 v 25.277977 c 0,1.579609 0.15256,3.153874 0.468472,4.733486 l 5.377663,-0.946689 c 1.105752,-0.157907 2.047763,0.631474 2.20572,1.737266 0.157955,1.105744 -0.631496,2.057527 -1.737249,2.215484 l -5.055589,0.790532 c 0.473919,1.421653 1.105413,2.679257 1.737248,3.942956 l 6.168209,-2.683955 c 0.947785,-0.315814 2.053876,0.164902 2.527796,1.112638 0.315913,0.947787 -0.164851,2.05393 -1.112625,2.527796 l -5.05559,2.20569 c 1.579652,1.73762 3.478474,2.68395 5.689977,2.68395 6.002659,0 7.113113,-3.633188 7.27107,-4.26501 v -1.893426 l -2.693709,-2.683955 c -0.789817,-0.789828 -1.098498,-1.90027 -0.62463,-3.006011 0.315913,-1.105744 1.422041,-1.737266 2.527794,-1.737266 h 5.524061 c 1.105752,0 2.053878,0.631522 2.527796,1.737266 0.47387,0.947787 0.15546,2.216183 -0.634392,3.006011 l -2.683949,2.840113 v 1.737268 0.322309 c 0.315913,0.947787 1.584337,4.265011 7.271067,4.265011 2.211505,0 4.100574,-1.11403 5.680218,-2.6937 l -5.05559,-2.205684 c -1.105752,-0.315814 -1.576726,-1.580013 -1.102859,-2.527798 0.315914,-1.105742 1.580007,-1.576813 2.527794,-1.102896 l 5.846133,2.527798 c 0.789822,-1.263698 1.263381,-2.531045 1.737253,-3.9527 l -5.05559,-0.79053 c -1.105752,-0.157905 -1.895208,-1.10974 -1.737253,-2.215482 0.157959,-1.105793 1.109731,-1.895225 2.215484,-1.737266 l 5.524061,0.790528 c 0.315963,-1.579612 0.478215,-3.311831 0.478215,-4.733484 V 59.329951 l -9.955022,6.636706 c -0.631859,0.473716 -1.417706,0.472217 -2.049561,0.155906 -5.370802,-2.369491 -11.535018,-2.369491 -16.747854,0 -0.631853,0.315812 -1.417707,0.31781 -2.049566,-0.155906 z m 20.378512,43.919241 c -1.26372,1.42166 -3.004581,2.68645 -5.689978,3.31833 1.105753,0.94779 3.004573,1.73722 5.689978,1.73722 2.685399,0 4.574459,-0.78943 5.680218,-1.73722 -2.685405,-0.63188 -4.416504,-1.89667 -5.680218,-3.31833 z"
   style="vector-effect:none;fill:url(#linearGradient2033);fill-opacity:1;stroke:none;stroke-width:4.83491;stroke-linecap:square;stroke-linejoin:miter;stroke-miterlimit:4;stroke-dasharray:19.3397, 4.83491;stroke-dashoffset:0;stroke-opacity:1;paint-order:stroke markers fill" /><path
   id="path1392"
   d="m 30.020126,93.447882 c 0.157965,0.947788 0.947788,1.737611 1.895577,1.737611 0.157964,0 0.157964,0 0.315929,0 l 9.477881,-1.421682 c 0.473894,1.737612 1.263717,3.317259 2.053541,4.896905 l -7.582305,3.317254 c -0.947788,0.4739 -1.421682,1.57965 -1.105753,2.52744 0.31593,0.78982 1.105753,1.26372 1.737612,1.26372 0.315929,0 0.473894,0 0.789823,-0.15797 l 8.372128,-3.63319 c 2.211506,2.6854 4.896905,4.42302 8.214163,4.89691 1.105753,1.89558 4.107082,5.3708 10.583634,5.3708 6.476552,0 9.319916,-3.47522 10.583634,-5.3708 3.317258,-0.31593 6.002657,-2.21151 8.214163,-4.89691 l 8.372128,3.63319 c 0.315929,0.15797 0.473894,0.15797 0.789823,0.15797 0.789824,0 1.421682,-0.4739 1.737612,-1.26372 0.473894,-0.94779 0,-2.21151 -1.105753,-2.52744 l -7.740269,-3.317254 c 0.789823,-1.579646 1.421682,-3.159293 2.053541,-4.896905 l 9.47788,1.421682 c 0.157965,0 0.157965,0 0.31593,0 0.947788,0 1.737611,-0.631858 1.895576,-1.737611 0.157965,-1.105753 -0.631859,-2.053541 -1.737612,-2.211506 l -9.161951,-1.263717 c 0.315929,-1.737612 0.473894,-3.475223 0.473894,-5.212835 V 55.694323 c 0,-0.789823 -0.473894,-1.421682 -1.105753,-1.737611 -0.631858,-0.315929 -1.421682,-0.315929 -2.053541,0.157965 l -12.16328,8.056198 c -5.686728,-2.36947 -12.321245,-2.36947 -18.165938,0 L 43.28916,54.114677 c -0.631859,-0.473894 -1.421683,-0.473894 -2.053541,-0.157965 -0.31593,0.315929 -0.789824,1.105753 -0.789824,1.737611 V 84.60186 c 0,1.737611 0.157965,3.475223 0.473894,5.212834 l -9.161951,1.263718 c -1.105753,0.315929 -1.895576,1.421682 -1.737612,2.36947 z m 29.065502,13.111068 c 2.685399,-0.63186 4.423011,-1.89558 5.686728,-3.31726 1.263717,1.42168 3.001329,2.6854 5.686728,3.31726 -1.105752,0.94779 -3.001328,1.73761 -5.686728,1.73761 -2.6854,0 -4.580976,-0.78982 -5.686728,-1.73761 z M 44.394912,84.60186 V 59.327511 l 9.951775,6.634517 c 0.631859,0.473894 1.421682,0.473894 2.053541,0.157964 5.212834,-2.36947 11.373457,-2.36947 16.744256,0 0.631859,0.31593 1.421682,0.31593 2.053541,-0.157964 L 85.1498,59.327511 V 84.60186 c 0,1.421682 -0.157965,3.159293 -0.473894,4.73894 l -5.528764,-0.789823 c -1.105753,-0.157965 -2.053541,0.631859 -2.211506,1.737611 -0.157964,1.105753 0.631859,2.053541 1.737612,2.211506 l 5.05487,0.789823 c -0.473894,1.421682 -0.947788,2.6854 -1.737612,3.949117 l -5.844693,-2.527435 c -0.947788,-0.473894 -2.211506,0 -2.527435,1.105753 -0.473894,0.947788 0,2.211506 1.105753,2.527435 l 5.05487,2.211503 c -1.579647,1.57965 -3.475223,2.6854 -5.686729,2.6854 -5.686728,0 -6.950446,-3.317256 -7.266375,-4.265044 0,-0.157965 0,-0.157965 0,-0.31593 v -1.737611 c 0,0 0,0 0,0 v 0 l 2.685399,-2.843364 C 70.30112,93.289917 70.617049,92.0262 70.143155,91.078412 69.669261,89.972659 68.721473,89.3408 67.61572,89.3408 h -5.528764 c -1.105752,0 -2.211505,0.631859 -2.527434,1.737612 -0.473894,1.105752 -0.157965,2.211505 0.631858,3.001329 l 2.6854,2.685399 c 0,0 0,0 0,0 0,0 0,0 0,0 v 1.895576 c -0.157965,0.631859 -1.263718,4.265044 -7.266375,4.265044 -2.211506,0 -4.107082,-0.94779 -5.686729,-2.6854 l 5.05487,-2.211502 c 0.947788,-0.473894 1.421682,-1.579647 1.105753,-2.527435 -0.473894,-0.947788 -1.579647,-1.421682 -2.527435,-1.105753 l -6.160623,2.6854 C 46.764382,95.817352 46.132524,94.553635 45.65863,93.131953 l 5.054869,-0.789824 c 1.105753,-0.157965 1.895577,-1.105753 1.737612,-2.211505 -0.157965,-1.105753 -1.105753,-1.895577 -2.211506,-1.737612 L 44.868806,89.3408 c -0.315929,-1.579647 -0.473894,-3.159293 -0.473894,-4.73894 z"
   style="stroke-width:1.57965;fill:#000000;fill-opacity:1" /><path
   id="path1976"
   d="m 64.553306,10.68242 c -12.898573,0 -23.352243,10.456734 -23.352243,23.355316 0,16.524627 20.919237,44.358283 21.80962,45.535181 0.365932,0.483213 0.936523,0.768143 1.542623,0.768244 0.606095,-1.01e-4 1.179794,-0.28483 1.545711,-0.768244 C 66.989423,78.396066 87.90863,50.562363 87.90863,34.037736 87.90863,21.139154 77.451877,10.68242 64.553306,10.68242 Z m 0,11.514155 A 11.399729,11.399729 0 0 1 75.953298,33.596549 11.399729,11.399729 0 0 1 64.553306,44.996522 11.399729,11.399729 0 0 1 53.156402,33.596549 11.399729,11.399729 0 0 1 64.553306,22.196575 Z"
   style="fill:url(#linearGradient1990);fill-opacity:1;stroke-width:0.774001" /><path
   d="M 64.693375,81.001234 A 1.9732899,1.9732899 0 0 1 63.120578,80.219266 C 62.213065,79.019731 40.888775,50.647363 40.888775,33.804601 a 23.8046,23.8046 0 1 1 47.6092,0 c 0,16.842762 -21.32426,45.215162 -22.231805,46.414665 a 1.9732899,1.9732899 0 0 1 -1.572795,0.781968 z m 0,-67.056719 A 19.882397,19.882397 0 0 0 44.833288,33.804601 c 0,13.013034 14.911727,34.95516 19.860087,41.876937 4.948361,-6.921777 19.860086,-28.863903 19.860086,-41.876937 A 19.882397,19.882397 0 0 0 64.693375,13.944515 Z"
   id="path830"
   style="stroke-width:0.788902;fill:#000000;fill-opacity:1" /><path
   d="M 64.693375,46.693217 A 12.888428,12.888428 0 1 1 77.581992,33.804601 12.903393,12.903393 0 0 1 64.693375,46.693217 Z m 0,-21.832342 a 8.9439148,8.9439148 0 1 0 8.944103,8.943726 8.9541547,8.9541547 0 0 0 -8.944103,-8.943726 z"
   id="path832"
   style="stroke-width:0.788902;fill:#000000;fill-opacity:1" /><g
   aria-label="Cat Tracker"
   id="text835"
   style="font-style:normal;font-variant:normal;font-weight:300;font-stretch:normal;font-size:80.632px;line-height:1.25;font-family:'GT Eesti Display';-inkscape-font-specification:'GT Eesti Display Light';letter-spacing:0px;word-spacing:0px;fill:#ffffff;fill-opacity:1;stroke:none;stroke-width:2.0158"><path
     d="m 155.20071,102.28919 q -8.95015,0 -15.80387,-3.70907 -6.85372,-3.709072 -10.5628,-10.401529 -3.70907,-6.692456 -3.70907,-15.32008 0,-8.627625 3.70907,-15.320081 3.70908,-6.692456 10.5628,-10.401529 6.85372,-3.709072 15.80387,-3.709072 5.88614,0 10.48216,1.61264 4.67666,1.61264 9.03078,4.837921 l -2.74148,3.789704 q -3.78971,-2.82212 -7.82131,-4.273497 -3.95097,-1.532008 -9.03078,-1.532008 -7.41815,0 -13.14302,3.225281 -5.72487,3.144648 -8.95015,8.86952 -3.14465,5.64424 -3.14465,12.901121 0,7.25688 3.14465,12.981752 3.22528,5.64424 8.95015,8.869521 5.72487,3.144648 13.14302,3.144648 5.07981,0 9.03078,-1.451376 4.0316,-1.532008 7.82131,-4.354129 l 2.74148,3.789705 q -4.35412,3.22528 -9.03078,4.837918 -4.59602,1.61264 -10.48216,1.61264 z"
     style="font-style:normal;font-variant:normal;font-weight:300;font-stretch:normal;font-family:'GT Eesti Display';-inkscape-font-specification:'GT Eesti Display Light';stroke-width:2.0158"
     id="path859" /><path
     d="m 195.91964,102.28919 q -5.32171,0 -9.5952,-2.418958 -4.19287,-2.41896 -6.69246,-6.934352 -2.41896,-4.515393 -2.41896,-10.482161 0,-5.966768 2.41896,-10.48216 2.49959,-4.515393 6.69246,-6.934353 4.27349,-2.41896 9.5952,-2.41896 5.32172,0 9.27268,2.338328 3.95097,2.338328 6.0474,6.450561 h 0.16127 v -7.579409 h 4.11223 v 37.251984 h -4.11223 v -7.579406 h -0.16127 q -2.09643,4.112232 -6.0474,6.45056 -3.95096,2.338326 -9.27268,2.338326 z m 0.64506,-4.031598 q 4.51539,0 7.90194,-2.0158 3.46717,-2.0158 5.32171,-5.563609 1.93517,-3.62844 1.93517,-8.224464 0,-4.596024 -1.93517,-8.143832 -1.85454,-3.628441 -5.32171,-5.644241 -3.38655,-2.0158 -7.90194,-2.0158 -4.51539,0 -7.90194,2.0158 -3.38654,2.0158 -5.32171,5.644241 -1.85453,3.547808 -1.85453,8.143832 0,4.596024 1.85453,8.224464 1.93517,3.547809 5.32171,5.563609 3.38655,2.0158 7.90194,2.0158 z"
     style="font-style:normal;font-variant:normal;font-weight:300;font-stretch:normal;font-family:'GT Eesti Display';-inkscape-font-specification:'GT Eesti Display Light';stroke-width:2.0158"
     id="path861" /><path
     d="m 234.21984,67.456166 v 24.028337 q 0,2.822121 1.37075,4.354129 1.37074,1.451376 3.95097,1.451376 h 2.0158 v 3.950972 h -2.58023 q -4.0316,0 -6.45056,-2.2577 -2.33833,-2.338328 -2.33833,-6.692456 V 67.456166 h -7.66004 v -3.62844 h 7.66004 V 48.910805 h 4.0316 v 14.916921 h 8.78889 v 3.62844 z"
     style="font-style:normal;font-variant:normal;font-weight:300;font-stretch:normal;font-family:'GT Eesti Display';-inkscape-font-specification:'GT Eesti Display Light';stroke-width:2.0158"
     id="path863" /><path
     d="m 307.83659,48.830173 h -17.65841 v 52.249537 h -4.43476 V 48.830173 h -17.57778 v -4.192864 h 39.67095 z"
     style="font-style:normal;font-variant:normal;font-weight:300;font-stretch:normal;font-family:'GT Eesti Display';-inkscape-font-specification:'GT Eesti Display Light';stroke-width:2.0158"
     id="path865" /><path
     d="m 324.20476,67.375534 h -1.12885 q -5.88614,0 -9.27268,4.192865 -3.38655,4.112232 -3.38655,11.207848 v 18.303463 h -4.0316 V 63.827726 h 4.0316 v 8.546993 h 0.16127 q 0.96758,-4.273497 4.27349,-6.934353 3.38655,-2.741488 8.0632,-2.741488 h 1.29012 z"
     style="font-style:normal;font-variant:normal;font-weight:300;font-stretch:normal;font-family:'GT Eesti Display';-inkscape-font-specification:'GT Eesti Display Light';stroke-width:2.0158"
     id="path867" /><path
     d="m 343.87883,102.28919 q -5.32171,0 -9.59521,-2.418958 -4.19286,-2.41896 -6.69245,-6.934352 -2.41896,-4.515393 -2.41896,-10.482161 0,-5.966768 2.41896,-10.48216 2.49959,-4.515393 6.69245,-6.934353 4.2735,-2.41896 9.59521,-2.41896 5.32171,0 9.27268,2.338328 3.95097,2.338328 6.0474,6.450561 h 0.16127 v -7.579409 h 4.11223 v 37.251984 h -4.11223 v -7.579406 h -0.16127 q -2.09643,4.112232 -6.0474,6.45056 -3.95097,2.338326 -9.27268,2.338326 z m 0.64506,-4.031598 q 4.51539,0 7.90193,-2.0158 3.46718,-2.0158 5.32172,-5.563609 1.93516,-3.62844 1.93516,-8.224464 0,-4.596024 -1.93516,-8.143832 -1.85454,-3.628441 -5.32172,-5.644241 -3.38654,-2.0158 -7.90193,-2.0158 -4.5154,0 -7.90194,2.0158 -3.38654,2.0158 -5.32171,5.644241 -1.85454,3.547808 -1.85454,8.143832 0,4.596024 1.85454,8.224464 1.93517,3.547809 5.32171,5.563609 3.38654,2.0158 7.90194,2.0158 z"
     style="font-style:normal;font-variant:normal;font-weight:300;font-stretch:normal;font-family:'GT Eesti Display';-inkscape-font-specification:'GT Eesti Display Light';stroke-width:2.0158"
     id="path869" /><path
     d="m 391.37108,102.28919 q -5.88614,0 -10.40153,-2.49959 -4.51539,-2.499592 -7.09562,-7.014984 -2.49959,-4.515393 -2.49959,-10.320897 0,-5.805504 2.49959,-10.320896 2.58023,-4.515393 7.09562,-7.014985 4.51539,-2.499592 10.40153,-2.499592 6.69245,0 12.73985,3.62844 l -2.09643,3.62844 q -2.74149,-1.61264 -5.32171,-2.41896 -2.58023,-0.80632 -5.48298,-0.80632 -4.59602,0 -8.14383,2.096432 -3.54781,2.096432 -5.48298,5.724873 -1.93517,3.62844 -1.93517,7.982568 0,4.354128 1.93517,7.982568 1.93517,3.628441 5.48298,5.724873 3.54781,2.096432 8.14383,2.096432 2.90275,0 5.48298,-0.80632 2.58022,-0.80632 5.32171,-2.41896 l 2.09643,3.62844 q -6.0474,3.628438 -12.73985,3.628438 z"
     style="font-style:normal;font-variant:normal;font-weight:300;font-stretch:normal;font-family:'GT Eesti Display';-inkscape-font-specification:'GT Eesti Display Light';stroke-width:2.0158"
     id="path871" /><path
     d="M 434.50904,101.07971 415.47989,81.728031 v 19.351679 h -4.0316 V 44.637309 h 4.0316 v 35.80061 l 17.25525,-16.610193 h 5.96677 l -18.3841,17.093985 20.23863,20.157999 z"
     style="font-style:normal;font-variant:normal;font-weight:300;font-stretch:normal;font-family:'GT Eesti Display';-inkscape-font-specification:'GT Eesti Display Light';stroke-width:2.0158"
     id="path873" /><path
     d="m 459.66609,62.618246 q 9.03078,0 13.46554,5.482976 4.43476,5.482977 4.43476,13.868705 v 0.886952 h -32.65596 q 0.0806,7.095616 4.19286,11.288481 4.19287,4.112232 10.96596,4.112232 5.07981,0 8.14383,-2.0158 3.06401,-2.096432 5.64424,-5.563609 l 3.06402,2.580225 q -2.74149,3.870336 -6.69246,6.45056 -3.87034,2.580222 -10.15963,2.580222 -5.80551,0 -10.15964,-2.418958 -4.35412,-2.499592 -6.77308,-6.934352 -2.33833,-4.515393 -2.33833,-10.401529 0,-6.128032 2.41896,-10.643424 2.41896,-4.515393 6.69245,-6.853721 4.2735,-2.41896 9.75648,-2.41896 z m -0.2419,3.950968 q -5.72487,0 -9.75647,3.386544 -3.95097,3.305913 -4.59603,9.514577 h 28.05994 q -0.48379,-6.128032 -4.0316,-9.514577 -3.46718,-3.386544 -9.67584,-3.386544 z"
     style="font-style:normal;font-variant:normal;font-weight:300;font-stretch:normal;font-family:'GT Eesti Display';-inkscape-font-specification:'GT Eesti Display Light';stroke-width:2.0158"
     id="path875" /><path
     d="m 503.6104,67.375534 h -1.12885 q -5.88614,0 -9.27268,4.192865 -3.38655,4.112232 -3.38655,11.207848 v 18.303463 h -4.0316 V 63.827726 h 4.0316 v 8.546993 h 0.16127 q 0.96758,-4.273497 4.27349,-6.934353 3.38655,-2.741488 8.0632,-2.741488 h 1.29012 z"
     style="font-style:normal;font-variant:normal;font-weight:300;font-stretch:normal;font-family:'GT Eesti Display';-inkscape-font-specification:'GT Eesti Display Light';stroke-width:2.0158"
     id="path877" /></g>

</svg>
