<?xml version="1.0" encoding="UTF-8" standalone="no"?>
<svg
   xmlns:dc="http://purl.org/dc/elements/1.1/"
   xmlns:cc="http://creativecommons.org/ns#"
   xmlns:rdf="http://www.w3.org/1999/02/22-rdf-syntax-ns#"
   xmlns:svg="http://www.w3.org/2000/svg"
   xmlns="http://www.w3.org/2000/svg"
   xmlns:xlink="http://www.w3.org/1999/xlink"
   xmlns:sodipodi="http://sodipodi.sourceforge.net/DTD/sodipodi-0.dtd"
   xmlns:inkscape="http://www.inkscape.org/namespaces/inkscape"
   version="1.1"
   x="0px"
   y="0px"
   viewBox="0 0 513.71722 122.24568"
   enable-background="new 0 0 50 50"
   xml:space="preserve"
   id="svg1400"
   sodipodi:docname="logo-with-text.svg"
   inkscape:version="0.92.4 5da689c313, 2019-01-14"
   width="513.71722"
   height="122.24568"
   inkscape:export-filename="/home/m/NordicSemiconductor/asset-tracker-cloud-docs/docs/logo-with-text.png"
   inkscape:export-xdpi="191.36"
   inkscape:export-ydpi="191.36"><metadata
   id="metadata1406"><rdf:RDF><cc:Work
       rdf:about=""><dc:format>image/svg+xml</dc:format><dc:type
         rdf:resource="http://purl.org/dc/dcmitype/StillImage" /><dc:title></dc:title></cc:Work></rdf:RDF></metadata><defs
   id="defs1404"><linearGradient
     inkscape:collect="always"
     id="linearGradient2031"><stop
       style="stop-color:#ffccaa;stop-opacity:1"
       offset="0"
       id="stop2027" /><stop
       style="stop-color:#aa4400;stop-opacity:1"
       offset="1"
       id="stop2029" /></linearGradient><linearGradient
     inkscape:collect="always"
     id="linearGradient1988"><stop
       style="stop-color:#7fd4e6;stop-opacity:1"
       offset="0"
       id="stop1984" /><stop
       id="stop2011"
       offset="0.6111635"
       style="stop-color:#7fd4e6;stop-opacity:1" /><stop
       style="stop-color:#00a9ce;stop-opacity:1"
       offset="0.61295801"
       id="stop2013" /><stop
       style="stop-color:#00a9ce;stop-opacity:1"
       offset="1"
       id="stop1986" /></linearGradient><linearGradient
     inkscape:collect="always"
     xlink:href="#linearGradient1988"
     id="linearGradient1990"
     x1="61.516045"
     y1="15.496874"
     x2="80.523285"
     y2="-16.80607"
     gradientUnits="userSpaceOnUse"
     gradientTransform="matrix(7.1824869,0,0,7.1824869,-311.27352,171.24434)" /><linearGradient
     inkscape:collect="always"
     xlink:href="#linearGradient2031"
     id="linearGradient2033"
     x1="41.010696"
     y1="37.313065"
     x2="49.156654"
     y2="37.313065"
     gradientUnits="userSpaceOnUse"
     gradientTransform="matrix(23.158415,0,0,23.158415,-856.94848,-532.51742)" /></defs><sodipodi:namedview
   pagecolor="#ffffff"
   bordercolor="#666666"
   borderopacity="1"
   objecttolerance="10"
   gridtolerance="10"
   guidetolerance="10"
   inkscape:pageopacity="0"
   inkscape:pageshadow="2"
   inkscape:window-width="1920"
   inkscape:window-height="1135"
   id="namedview1402"
   showgrid="false"
   inkscape:zoom="1.3350176"
   inkscape:cx="6.1793092"
   inkscape:cy="101.2816"
   inkscape:window-x="1920"
   inkscape:window-y="36"
   inkscape:window-maximized="1"
   inkscape:current-layer="svg1400"
   fit-margin-top="10"
   fit-margin-left="30"
   fit-margin-right="10"
   fit-margin-bottom="10" /><g
   id="g2729"
   transform="matrix(0.21577596,0,0,0.21577596,24.2696,6.6288352)"><path
     sodipodi:nodetypes="csccccccccccsccccsscccccsccccccccccsccccccccscc"
     inkscape:connector-curvature="0"
     id="rect2022"
     d="m 93.25951,244.23881 v 117.14918 c 0,7.3206 0.707027,14.61643 2.171102,21.93704 l 24.922438,-4.38737 c 5.12454,-0.73181 9.49023,2.92653 10.22227,8.05125 0.73203,5.1245 -2.92663,9.53548 -8.05117,10.26752 l -23.429807,3.66367 c 2.196347,6.58856 5.122967,12.41685 8.051167,18.27338 l 28.58617,-12.43862 c 4.39245,-1.46362 9.51856,0.76423 11.71491,5.15645 1.46408,4.39246 -0.76399,9.51881 -5.15639,11.71491 l -23.42981,10.22213 c 7.3208,8.05288 16.12077,12.43862 26.36984,12.43862 27.81894,0 32.96527,-16.8378 33.69731,-19.76594 v -8.77496 l -12.48382,-12.43862 c -3.66036,-3.66041 -5.09092,-8.80668 -2.89481,-13.93117 1.46408,-5.1245 6.59036,-8.05125 11.7149,-8.05125 h 25.60091 c 5.12454,0 9.51857,2.92675 11.71491,8.05125 2.19612,4.39246 0.72047,10.27076 -2.94005,13.93117 l -12.43859,13.16232 v 8.05126 1.49372 c 1.46408,4.39246 7.34251,19.76593 33.6973,19.76593 10.24908,0 19.00385,-5.16293 26.32461,-12.48377 l -23.42981,-10.22212 c -5.12454,-1.46362 -7.30724,-7.32247 -5.11113,-11.71492 1.46408,-5.12449 7.32244,-7.30764 11.7149,-5.1113 l 27.09353,11.71492 c 3.66038,-5.85653 5.85506,-11.72997 8.05119,-18.31854 l -23.42981,-3.66366 c -5.12454,-0.7318 -8.78322,-5.14302 -8.05119,-10.26751 0.73205,-5.12473 5.14298,-8.7833 10.26752,-8.05125 l 25.60091,3.66365 c 1.46431,-7.32061 2.21626,-15.34847 2.21626,-21.93703 V 244.23998 l -46.13592,30.75739 c -2.92831,2.19541 -6.57027,2.18846 -9.49856,0.72254 -24.89064,-10.98126 -53.45831,-10.98126 -77.61687,0 -2.92828,1.46361 -6.57027,1.47287 -9.49858,-0.72254 z m 94.44292,203.54095 c -5.85663,6.58857 -13.92454,12.45019 -26.36984,15.37857 5.12454,4.39246 13.9245,8.05103 26.36984,8.05103 12.44531,0 21.20004,-3.65857 26.32461,-8.05103 -12.44534,-2.92838 -20.46801,-8.79 -26.32461,-15.37857 z"
     style="opacity:1;vector-effect:none;fill:url(#linearGradient2033);fill-opacity:1;stroke:none;stroke-width:22.40713501;stroke-linecap:square;stroke-linejoin:miter;stroke-miterlimit:4;stroke-dasharray:89.62854084, 22.40713532;stroke-dashoffset:0;stroke-opacity:1;paint-order:stroke markers fill" /><g
     transform="matrix(7.3207731,0,0,7.3207731,4.6881332,171.02094)"
     id="g1394"><path
       inkscape:connector-curvature="0"
       id="path1392"
       d="m 3,31.6 c 0.1,0.6 0.6,1.1 1.2,1.1 0.1,0 0.1,0 0.2,0 l 6,-0.9 c 0.3,1.1 0.8,2.1 1.3,3.1 L 6.9,37 c -0.6,0.3 -0.9,1 -0.7,1.6 0.2,0.5 0.7,0.8 1.1,0.8 0.2,0 0.3,0 0.5,-0.1 L 13.1,37 c 1.4,1.7 3.1,2.8 5.2,3.1 0.7,1.2 2.6,3.4 6.7,3.4 4.1,0 5.9,-2.2 6.7,-3.4 2.1,-0.2 3.8,-1.4 5.2,-3.1 l 5.3,2.3 c 0.2,0.1 0.3,0.1 0.5,0.1 0.5,0 0.9,-0.3 1.1,-0.8 0.3,-0.6 0,-1.4 -0.7,-1.6 l -4.9,-2.1 c 0.5,-1 0.9,-2 1.3,-3.1 l 6,0.9 c 0.1,0 0.1,0 0.2,0 0.6,0 1.1,-0.4 1.2,-1.1 0.1,-0.7 -0.4,-1.3 -1.1,-1.4 L 40,29.4 c 0.2,-1.1 0.3,-2.2 0.3,-3.3 V 7.7 C 40.3,7.2 40,6.8 39.6,6.6 39.2,6.4 38.7,6.4 38.3,6.7 l -7.7,5.1 C 27,10.3 22.8,10.3 19.1,11.8 L 11.4,6.7 C 11,6.4 10.5,6.4 10.1,6.6 9.9,6.8 9.6,7.3 9.6,7.7 V 26 c 0,1.1 0.1,2.2 0.3,3.3 L 4.1,30.1 C 3.4,30.3 2.9,31 3,31.6 Z m 18.4,8.3 c 1.7,-0.4 2.8,-1.2 3.6,-2.1 0.8,0.9 1.9,1.7 3.6,2.1 C 27.9,40.5 26.7,41 25,41 23.3,41 22.1,40.5 21.4,39.9 Z M 12.1,26 V 10 l 6.3,4.2 c 0.4,0.3 0.9,0.3 1.3,0.1 3.3,-1.5 7.2,-1.5 10.6,0 0.4,0.2 0.9,0.2 1.3,-0.1 L 37.9,10 v 16 c 0,0.9 -0.1,2 -0.3,3 l -3.5,-0.5 c -0.7,-0.1 -1.3,0.4 -1.4,1.1 -0.1,0.7 0.4,1.3 1.1,1.4 l 3.2,0.5 c -0.3,0.9 -0.6,1.7 -1.1,2.5 l -3.7,-1.6 c -0.6,-0.3 -1.4,0 -1.6,0.7 -0.3,0.6 0,1.4 0.7,1.6 l 3.2,1.4 c -1,1 -2.2,1.7 -3.6,1.7 -3.6,0 -4.4,-2.1 -4.6,-2.7 0,-0.1 0,-0.1 0,-0.2 v -1.1 c 0,0 0,0 0,0 v 0 L 28,32 c 0.5,-0.5 0.7,-1.3 0.4,-1.9 C 28.1,29.4 27.5,29 26.8,29 h -3.5 c -0.7,0 -1.4,0.4 -1.6,1.1 -0.3,0.7 -0.1,1.4 0.4,1.9 l 1.7,1.7 c 0,0 0,0 0,0 0,0 0,0 0,0 v 1.2 c -0.1,0.4 -0.8,2.7 -4.6,2.7 -1.4,0 -2.6,-0.6 -3.6,-1.7 l 3.2,-1.4 c 0.6,-0.3 0.9,-1 0.7,-1.6 -0.3,-0.6 -1,-0.9 -1.6,-0.7 L 14,33.9 c -0.4,-0.8 -0.8,-1.6 -1.1,-2.5 l 3.2,-0.5 c 0.7,-0.1 1.2,-0.7 1.1,-1.4 -0.1,-0.7 -0.7,-1.2 -1.4,-1.1 L 12.4,29 c -0.2,-1 -0.3,-2 -0.3,-3 z" /></g><path
     inkscape:connector-curvature="0"
     id="path1976"
     d="m 186.69228,18.786081 c -59.77762,0 -108.22449,48.46107 -108.22449,108.238729 0,76.58234 96.94888,205.57565 101.0753,211.02991 1.69589,2.23942 4.34026,3.55991 7.14919,3.56038 2.80891,-4.7e-4 5.46768,-1.32003 7.1635,-3.56038 4.12653,-5.45404 101.07527,-134.44757 101.07527,-211.02991 0,-59.777659 -48.46116,-108.238729 -108.23877,-108.238729 z m 0,53.361622 a 52.831322,52.831322 0 0 1 52.83254,52.832457 52.831322,52.831322 0 0 1 -52.83254,52.83245 52.831322,52.831322 0 0 1 -52.81823,-52.83245 52.831322,52.831322 0 0 1 52.81823,-52.832457 z"
     style="fill:url(#linearGradient1990);fill-opacity:1;stroke-width:3.58705688" /><g
     transform="matrix(7.3207731,0,0,7.3207731,5.1664934,155.94087)"
     id="g1974"><path
       inkscape:connector-curvature="0"
       d="M 24.884658,25.780515 A 1.2491969,1.2491969 0 0 1 23.888994,25.285488 C 23.31449,24.526119 9.8150867,6.5649089 9.8150867,-4.0974509 a 15.069571,15.069571 0 1 1 30.1391423,0 c 0,10.6623598 -13.499385,28.6235899 -14.073909,29.3829389 a 1.2491969,1.2491969 0 0 1 -0.995662,0.495027 z m 0,-42.450451 A 12.586609,12.586609 0 0 0 12.312172,-4.0974509 c 0,8.2379393 9.439912,22.1284659 12.572486,26.5103169 C 28.017232,18.031015 37.457143,4.1404884 37.457143,-4.0974509 A 12.586609,12.586609 0 0 0 24.884658,-16.669936 Z"
       id="path830"
       style="stroke-width:0.4994171" /><path
       inkscape:connector-curvature="0"
       d="m 24.884658,4.0617252 a 8.1590567,8.1590567 0 1 1 8.159176,-8.1591761 8.1685306,8.1685306 0 0 1 -8.159176,8.1591761 z m 0,-13.8210277 a 5.6619713,5.6619713 0 1 0 5.66209,5.6618516 5.6684537,5.6684537 0 0 0 -5.66209,-5.6618516 z"
       id="path832"
       style="stroke-width:0.4994171" /></g></g><text
   xml:space="preserve"
   style="font-style:normal;font-variant:normal;font-weight:300;font-stretch:normal;font-size:80.63195801px;line-height:1.25;font-family:'GT Eesti Display';-inkscape-font-specification:'GT Eesti Display Light';letter-spacing:0px;word-spacing:0px;fill:#000000;fill-opacity:1;stroke:none;stroke-width:2.01579905"
   x="121.98032"
   y="101.07971"
   id="text835"><tspan
     sodipodi:role="line"
     id="tspan833"
     x="121.98032"
     y="101.07971"
     style="font-style:normal;font-variant:normal;font-weight:300;font-stretch:normal;font-family:'GT Eesti Display';-inkscape-font-specification:'GT Eesti Display Light';stroke-width:2.01579905">Cat Tracker</tspan></text>

</svg>